<svg width="15" height="8" viewBox="0 0 15 8" fill="none" xmlns="http://www.w3.org/2000/svg">
<path d="M7.54937 7.62345L13.7785 1.73076C13.9227 1.59447 14.0021 1.41213 14.0022 1.2174C14.0022 1.02268 13.9228 0.839769 13.7787 0.70245L13.3202 0.265221C13.0214 -0.0192886 12.5358 -0.0210216 12.2374 0.261357L7.00658 5.2096L1.77167 0.218498C1.62753 0.0811786 1.43536 0.00495831 1.23043 0.00422702C1.02528 0.00349492 0.833086 0.0783435 0.688783 0.214634L0.230272 0.64859C0.0860839 0.784989 0.00663053 0.96722 0.0065968 1.16195C0.00656306 1.35667 0.0859531 1.53958 0.230094 1.6769L6.46284 7.61957C6.60744 7.75722 6.80052 7.83322 7.00579 7.83352C7.21185 7.83469 7.40484 7.76006 7.54937 7.62345Z" fill="black"/>
</svg>
